<svg version="1.1" xmlns="http://www.w3.org/2000/svg" xmlns:xlink="http://www.w3.org/1999/xlink" x="0px" y="0px" viewBox="0 0 32 32" xml:space="preserve" width="32" height="32"><g class="nc-icon-wrapper" fill="#fb503b"><path fill="#fb503b" d="M22.067,26.846l-0.408,1.67C18.83,29.63,18.003,30,16.186,30c-1.484,0-2.638-0.362-3.461-1.085 c-1.626-1.431-1.352-3.498-0.844-5.613l1.531-5.418c0.296-1.116,0.894-3.393,0.057-4.193c-0.839-0.8-2.79-0.295-3.926,0.13 l0.409-1.67c1.64-0.667,3.712-1.484,5.479-1.484c2.66,0,4.606,1.329,4.606,3.841c0,0.235-0.027,0.649-0.083,1.243 c-0.102,1.09-0.133,1.019-1.832,7.032c-0.189,0.661-0.484,2.066-0.484,2.746C17.639,28.146,20.683,27.499,22.067,26.846z"></path> <circle data-color="color-2" fill="#555555" cx="19" cy="5" r="3"></circle></g></svg>