<svg version="1.1" xmlns="http://www.w3.org/2000/svg" xmlns:xlink="http://www.w3.org/1999/xlink" x="0px" y="0px" viewBox="0 0 32 32" xml:space="preserve" width="32" height="32"><g class="nc-icon-wrapper" fill="#fb503b"><path fill="#fb503b" d="M7.2,15L11,7.4c0.3-0.7,1.5-0.7,1.8,0l7.3,14.6l3.2-6.4c0.2-0.3,0.5-0.6,0.9-0.6h7.8C31.4,6.6,24.5,0,16,0 S0.6,6.6,0.1,15H7.2z"></path> <path data-color="color-2" fill="#555555" d="M24.8,17L21,24.6c-0.2,0.3-0.5,0.6-0.9,0.6s-0.7-0.2-0.9-0.6l-7.3-14.6l-3.2,6.4C8.5,16.8,8.2,17,7.8,17H0.1 C0.6,25.4,7.5,32,16,32s15.4-6.6,15.9-15H24.8z"></path></g></svg>