<svg version="1.1" xmlns="http://www.w3.org/2000/svg" xmlns:xlink="http://www.w3.org/1999/xlink" x="0px" y="0px" viewBox="0 0 32 32" xml:space="preserve" width="32" height="32"><g class="nc-icon-wrapper" fill="#fb503b"><path fill="#fb503b" d="M23.5,4c-0.5-0.3-1.1-0.1-1.4,0.4c-0.3,0.5-0.1,1.1,0.4,1.4c4,2.3,6.5,6.6,6.5,11.3c0,7.2-5.8,13-13,13 S3,24.2,3,17c0-4.6,2.5-8.9,6.5-11.3c0.5-0.3,0.6-0.9,0.4-1.4C9.6,3.9,9,3.7,8.5,4C3.9,6.7,1,11.7,1,17c0,8.3,6.7,15,15,15 s15-6.7,15-15C31,11.7,28.1,6.7,23.5,4z"></path> <path data-color="color-2" fill="#555555" d="M16,11c0.6,0,1-0.4,1-1V1c0-0.6-0.4-1-1-1s-1,0.4-1,1v9C15,10.6,15.4,11,16,11z"></path></g></svg>