<svg xmlns="http://www.w3.org/2000/svg" xmlns:xlink="http://www.w3.org/1999/xlink" x="0px" y="0px" viewBox="0 0 32 32" width="32" height="32"><g class="nc-icon-wrapper" fill="#fb503b"><path fill="#fb503b" d="M31,3h-6V0h-2v3h-6V0h-2v3H9V0H7v3H1C0.447,3,0,3.447,0,4v27c0,0.553,0.447,1,1,1h30c0.553,0,1-0.447,1-1V4 C32,3.447,31.553,3,31,3z M30,30H2V10h28V30z"></path> <path data-color="color-2" fill="#555555" d="M10,26H6c-0.552,0-1-0.448-1-1v-3c0-0.552,0.448-1,1-1h4c0.552,0,1,0.448,1,1v3 C11,25.552,10.552,26,10,26z"></path> <path data-color="color-2" fill="#555555" d="M10,19H6c-0.552,0-1-0.448-1-1v-3c0-0.552,0.448-1,1-1h4c0.552,0,1,0.448,1,1v3 C11,18.552,10.552,19,10,19z"></path> <path data-color="color-2" fill="#555555" d="M18,26h-4c-0.552,0-1-0.448-1-1v-3c0-0.552,0.448-1,1-1h4c0.552,0,1,0.448,1,1v3 C19,25.552,18.552,26,18,26z"></path> <path data-color="color-2" fill="#555555" d="M18,19h-4c-0.552,0-1-0.448-1-1v-3c0-0.552,0.448-1,1-1h4c0.552,0,1,0.448,1,1v3 C19,18.552,18.552,19,18,19z"></path> <path data-color="color-2" fill="#555555" d="M26,19h-4c-0.552,0-1-0.448-1-1v-3c0-0.552,0.448-1,1-1h4c0.552,0,1,0.448,1,1v3 C27,18.552,26.552,19,26,19z"></path></g></svg>
