<svg version="1.1" xmlns="http://www.w3.org/2000/svg" xmlns:xlink="http://www.w3.org/1999/xlink" x="0px" y="0px" viewBox="0 0 32 32" xml:space="preserve" width="32" height="32"><g class="nc-icon-wrapper" fill="#fb503b"><path data-color="color-2" fill="#555555" d="M32 30H22a1 1 0 0 1-.986-.835l-1.164-6.986 1.973-.329L22.847 28H32v2z"></path><path fill="#fb503b" d="M.032 8.77L2 8.402l2.385 12.81-1.966.366z"></path><path fill="#fb503b" d="M29.071 2.923a1.004 1.004 0 0 0-.418-.642.993.993 0 0 0-.748-.158l-23.3 4.339a1.002 1.002 0 0 0-.8 1.166l2.524 13.555a1.001 1.001 0 0 0 1.167.8l23.299-4.338c.543-.101.901-.623.801-1.166L29.071 2.923zM11.5 13a1.5 1.5 0 1 1 .001-3.001A1.5 1.5 0 0 1 11.5 13z"></path></g></svg>