<svg version="1.1" xmlns="http://www.w3.org/2000/svg" xmlns:xlink="http://www.w3.org/1999/xlink" x="0px" y="0px" viewBox="0 0 32 32" xml:space="preserve" width="32" height="32"><g class="nc-icon-wrapper" fill="#fb503b"><polygon fill="#fb503b" points="32,22 27.707,26.293 31.707,30.293 30.293,31.707 26.293,27.707 22,32 22,22 "></polygon> <polygon fill="#fb503b" points="1.707,31.707 0.293,30.293 4.293,26.293 0,22 10,22 10,32 5.707,27.707 "></polygon> <polygon fill="#fb503b" points="32,10 27.707,5.707 31.707,1.707 30.293,0.293 26.293,4.293 22,0 22,10 "></polygon> <polygon fill="#fb503b" points="1.707,0.293 0.293,1.707 4.293,5.707 0,10 10,10 10,0 5.707,4.293 "></polygon> <path data-color="color-2" fill="#555555" d="M16,22c-3.309,0-6-2.691-6-6s2.691-6,6-6s6,2.691,6,6S19.309,22,16,22z"></path></g></svg>
