<svg version="1.1" xmlns="http://www.w3.org/2000/svg" xmlns:xlink="http://www.w3.org/1999/xlink" x="0px" y="0px" viewBox="0 0 32 32" xml:space="preserve" width="32" height="32"><g class="nc-icon-wrapper" fill="#fb503b"><path fill="#fb503b" d="M7,19H1c-0.6,0-1,0.4-1,1v8c0,0.6,0.4,1,1,1h6c0.6,0,1-0.4,1-1v-8C8,19.4,7.6,19,7,19z"></path> <path data-color="color-2" fill="#555555" d="M18,11h-6c-0.6,0-1,0.4-1,1v16c0,0.6,0.4,1,1,1h6c0.6,0,1-0.4,1-1V12C19,11.4,18.6,11,18,11z "></path> <path fill="#fb503b" d="M29,3h-6c-0.6,0-1,0.4-1,1v24c0,0.6,0.4,1,1,1h6c0.6,0,1-0.4,1-1V4C30,3.4,29.6,3,29,3z"></path></g></svg>