<svg version="1.1" xmlns="http://www.w3.org/2000/svg" xmlns:xlink="http://www.w3.org/1999/xlink" x="0px" y="0px" viewBox="0 0 32 32" xml:space="preserve" width="32" height="32"><g class="nc-icon-wrapper" fill="#fb503b"><path fill="#fb503b" d="M8.474,23.526l3.285-3.285C10.673,19.154,10,17.654,10,16c0-3.309,2.691-6,6-6 c1.654,0,3.154,0.673,4.241,1.759l3.285-3.285C21.323,7.067,18.758,6,16,6C7.898,6,1.452,15.04,1.182,15.425 c-0.243,0.346-0.242,0.807,0.002,1.152C1.362,16.83,4.238,20.819,8.474,23.526z"></path> <path fill="#fb503b" d="M30.816,15.423c-0.142-0.201-1.983-2.753-4.846-5.151l-4.18,4.18C21.923,14.947,22,15.464,22,16 c0,3.309-2.691,6-6,6c-0.536,0-1.053-0.077-1.548-0.21l-3.197,3.197C12.745,25.602,14.336,26,16,26 c8.021,0,14.541-9.036,14.814-9.42C31.062,16.233,31.062,15.77,30.816,15.423z"></path> <path data-color="color-2" fill="#555555" d="M4,29c-0.256,0-0.512-0.098-0.707-0.293c-0.391-0.391-0.391-1.023,0-1.414l24-24 c0.391-0.391,1.023-0.391,1.414,0s0.391,1.023,0,1.414l-24,24C4.512,28.902,4.256,29,4,29z"></path></g></svg>
