<svg version="1.1" xmlns="http://www.w3.org/2000/svg" xmlns:xlink="http://www.w3.org/1999/xlink" x="0px" y="0px" viewBox="0 0 32 32" xml:space="preserve" width="32" height="32"><g class="nc-icon-wrapper" fill="#fb503b"><path data-color="color-2" fill="#555555" d="M4.154,10.051C4.562,8.825,5.706,8,7,8h18V5c0-0.552-0.447-1-1-1H12.414L9.707,1.293 C9.52,1.105,9.266,1,9,1H1C0.447,1,0,1.448,0,2v20.515L4.154,10.051z"></path> <path fill="#fb503b" d="M31.812,10.416C31.623,10.154,31.321,10,31,10H7c-0.431,0-0.812,0.275-0.948,0.684l-6,18 c-0.103,0.305-0.051,0.64,0.137,0.901C0.377,29.846,0.679,30,1,30h24c0.431,0,0.812-0.275,0.948-0.684l6-18 C32.051,11.011,31.999,10.676,31.812,10.416z"></path></g></svg>