<svg version="1.1" xmlns="http://www.w3.org/2000/svg" xmlns:xlink="http://www.w3.org/1999/xlink" x="0px" y="0px" viewBox="0 0 32 32" xml:space="preserve" width="32" height="32"><g class="nc-icon-wrapper" fill="#fb503b"><circle fill="#fb503b" cx="16" cy="6" r="1"></circle> <path fill="#fb503b" d="M18,24v-1c0-0.77,0.297-1.468,0.775-2H0v1c0,2.757,2.243,5,5,5h13V24z"></path> <path fill="#fb503b" d="M27,4v10.09c0.718,0.121,1.392,0.369,2,0.721V4c0-1.654-1.346-3-3-3H6C4.346,1,3,2.346,3,4v15h2V4 c0-0.551,0.448-1,1-1h20C26.552,3,27,3.449,27,4z"></path> <path data-color="color-2" fill="#555555" d="M31,22h-1v-2c0-2.206-1.794-4-4-4s-4,1.794-4,4v2h-1c-0.552,0-1,0.448-1,1v7 c0,0.552,0.448,1,1,1h10c0.552,0,1-0.448,1-1v-7C32,22.448,31.552,22,31,22z M24,20c0-1.103,0.897-2,2-2s2,0.897,2,2v2h-4V20z"></path></g></svg>