<svg version="1.1" xmlns="http://www.w3.org/2000/svg" xmlns:xlink="http://www.w3.org/1999/xlink" x="0px" y="0px" viewBox="0 0 32 32" xml:space="preserve" width="32" height="32"><g class="nc-icon-wrapper" fill="#fb503b"><path fill="#fb503b" d="M10,6h2v9.7L9.8,19h12.4L20,15.7V6h2c0.6,0,1-0.4,1-1V1c0-0.6-0.4-1-1-1H10C9.4,0,9,0.4,9,1v4 C9,5.6,9.4,6,10,6z"></path> <path data-color="color-2" fill="#555555" d="M27.8,27.3L23.5,21H8.5l-4.2,6.3c-0.6,0.9-0.7,2.1-0.1,3.1c0.5,1,1.5,1.6,2.6,1.6h18.5 c1.1,0,2.1-0.6,2.6-1.6C28.4,29.4,28.4,28.3,27.8,27.3z"></path></g></svg>
