<svg version="1.1" xmlns="http://www.w3.org/2000/svg" xmlns:xlink="http://www.w3.org/1999/xlink" x="0px" y="0px" viewBox="0 0 32 32" xml:space="preserve" width="32" height="32"><g class="nc-icon-wrapper" fill="#fb503b"><path data-color="color-2" fill="#555555" d="M3,30H0v-2h3c0.552,0,1-0.448,1-1v-1.382l-1.869-0.935C1.107,24.172,0.472,23.144,0.472,22 s0.636-2.172,1.659-2.684L4,18.382V17c0-0.409,0.249-0.776,0.629-0.929l3.592-1.437l-3.928-3.928C4.105,10.52,4,10.266,4,10V2h2 v7.586l3.635,3.635c0.477,0.477,0.681,1.156,0.545,1.816c-0.136,0.661-0.591,1.205-1.217,1.455L6,17.677V19 c0,0.379-0.214,0.725-0.553,0.895l-2.422,1.211C2.679,21.278,2.472,21.613,2.472,22s0.207,0.722,0.554,0.895l2.422,1.211 C5.786,24.275,6,24.621,6,25v2C6,28.654,4.654,30,3,30z"></path> <path fill="#fb503b" d="M28,5H17c-2.206,0-4,1.794-4,4v8.649L7.919,24H28c2.206,0,4-1.794,4-4V9C32,6.794,30.206,5,28,5z M27,18h-9 v-2h9V18z M27,13h-9v-2h9V13z"></path></g></svg>