<svg version="1.1" xmlns="http://www.w3.org/2000/svg" xmlns:xlink="http://www.w3.org/1999/xlink" x="0px" y="0px" viewBox="0 0 32 32" xml:space="preserve" width="32" height="32"><g class="nc-icon-wrapper" fill="#fb503b"><path data-color="color-2" fill="#555555" d="M7,15H3c-0.6,0-1,0.4-1,1v15c0,0.6,0.4,1,1,1h4V15z"></path> <path fill="#fb503b" d="M9,32h15.3c1.9,0,3.6-1.4,3.9-3.3l1.8-9.5c0-0.1,0-0.1,0-0.2v-1c0-2.2-1.8-4-4-4h-9V5c0-2.2-1.8-4-4-4l0,0 c-0.5,0-0.9,0.3-1,0.8L9,15V32z"></path></g></svg>
