<svg version="1.1" xmlns="http://www.w3.org/2000/svg" xmlns:xlink="http://www.w3.org/1999/xlink" x="0px" y="0px" viewBox="0 0 32 32" xml:space="preserve" width="32" height="32"><g class="nc-icon-wrapper" fill="#fb503b"><path fill="#fb503b" d="M22 19a.997.997 0 0 1-.707-.293L19.586 17 21 15.586l1 1L28.586 10 22 3.414 15.414 10l1 1L15 12.414l-1.707-1.707a.999.999 0 0 1 0-1.414l8-8a.999.999 0 0 1 1.414 0l8 8a.999.999 0 0 1 0 1.414l-8 8A.997.997 0 0 1 22 19z"></path><path fill="#fb503b" d="M10 31a.997.997 0 0 1-.707-.293l-8-8a.999.999 0 0 1 0-1.414l8-8a.999.999 0 0 1 1.414 0L12.414 15 11 16.414l-1-1L3.414 22 10 28.586 16.586 22l-1-1L17 19.586l1.707 1.707a.999.999 0 0 1 0 1.414l-8 8A.997.997 0 0 1 10 31z"></path><path data-color="color-2" fill="#555555" d="M9.586 21L21 9.586 22.414 11 11 22.414z"></path></g></svg>
