<svg version="1.1" xmlns="http://www.w3.org/2000/svg" xmlns:xlink="http://www.w3.org/1999/xlink" x="0px" y="0px" viewBox="0 0 32 32" xml:space="preserve" width="32" height="32"><g class="nc-icon-wrapper" fill="#fb503b"><path fill="#fb503b" d="M30.539,1.156c-0.287-0.184-0.648-0.207-0.958-0.065L17,6.999H6c-0.552,0-1,0.447-1,1V9.1 c-2.279,0.465-4,2.484-4,4.899s1.721,4.434,4,4.899v1.101c0,0.553,0.448,1,1,1h11l12.581,5.908c0.133,0.062,0.276,0.092,0.419,0.092 c0.188,0,0.375-0.053,0.539-0.157C30.826,26.657,31,26.34,31,25.999v-24C31,1.658,30.826,1.341,30.539,1.156z"></path> <path data-color="color-2" fill="#555555" d="M16.264,23H9.352l4.122,6.595c0.563,0.901,1.546,1.4,2.547,1.4 c0.521,0,1.048-0.135,1.523-0.419c0.699-0.419,1.203-1.115,1.383-1.91c0.182-0.807,0.028-1.629-0.43-2.315L16.264,23z"></path></g></svg>
