<svg version="1.1" xmlns="http://www.w3.org/2000/svg" xmlns:xlink="http://www.w3.org/1999/xlink" x="0px" y="0px" viewBox="0 0 32 32" xml:space="preserve" width="32" height="32"><g class="nc-icon-wrapper" fill="#fb503b"><path data-color="color-2" fill="#555555" d="M24,17c-3.86,0-7,3.14-7,7s3.14,7,7,7s7-3.14,7-7S27.86,17,24,17z M28,25h-5v-5h2v3h3V25z"></path> <path fill="#fb503b" d="M15.947,28H5c-0.552,0-1-0.448-1-1V5c0-0.552,0.448-1,1-1h16c0.552,0,1,0.448,1,1v10.231 C22.644,15.084,23.312,15,24,15V3c0-1.654-1.346-3-3-3H5C3.346,0,2,1.346,2,3v26c0,1.654,1.346,3,3,3h14.889 C18.185,31.122,16.802,29.718,15.947,28z"></path></g></svg>