<svg version="1.1" xmlns="http://www.w3.org/2000/svg" xmlns:xlink="http://www.w3.org/1999/xlink" x="0px" y="0px" viewBox="0 0 32 32" xml:space="preserve" width="32" height="32"><g class="nc-icon-wrapper" fill="#fb503b"><path fill="#fb503b" d="M13,1H2C1.4,1,1,1.4,1,2v11c0,0.6,0.4,1,1,1h11c0.6,0,1-0.4,1-1V2C14,1.4,13.6,1,13,1z"></path> <path data-color="color-2" fill="#555555" d="M18,5h12c0.6,0,1-0.4,1-1s-0.4-1-1-1H18c-0.6,0-1,0.4-1,1S17.4,5,18,5z"></path> <path data-color="color-2" fill="#555555" d="M18,11h8c0.6,0,1-0.4,1-1s-0.4-1-1-1h-8c-0.6,0-1,0.4-1,1S17.4,11,18,11z"></path> <path fill="#fb503b" d="M13,18H2c-0.6,0-1,0.4-1,1v11c0,0.6,0.4,1,1,1h11c0.6,0,1-0.4,1-1V19C14,18.4,13.6,18,13,18z"></path> <path data-color="color-2" fill="#555555" d="M30,20H18c-0.6,0-1,0.4-1,1s0.4,1,1,1h12c0.6,0,1-0.4,1-1S30.6,20,30,20z"></path> <path data-color="color-2" fill="#555555" d="M26,26h-8c-0.6,0-1,0.4-1,1s0.4,1,1,1h8c0.6,0,1-0.4,1-1S26.6,26,26,26z"></path></g></svg>
