<svg version="1.1" xmlns="http://www.w3.org/2000/svg" xmlns:xlink="http://www.w3.org/1999/xlink" x="0px" y="0px" viewBox="0 0 32 32" xml:space="preserve" width="32" height="32"><g class="nc-icon-wrapper" fill="#fb503b"><path d="M30.8,22.4C30.543,22.057,24.4,14,16,14S1.457,22.057,1.2,22.4a1,1,0,0,0,0,1.2C1.457,23.943,7.6,32,16,32s14.543-8.057,14.8-8.4A1,1,0,0,0,30.8,22.4ZM16,28a5,5,0,1,1,5-5A5.006,5.006,0,0,1,16,28Z" fill="#fb503b"></path> <path d="M14.531,2.091A12,12,0,0,1,25.463,6.62l1.577-1.23a14,14,0,0,0-22.077,0L6.541,6.62A11.924,11.924,0,0,1,14.531,2.091Z" fill="#555555" data-color="color-2"></path> <path d="M15.611,7.017a6.952,6.952,0,0,0-4.828,2.321l1.49,1.334a5,5,0,0,1,7.062-.391,4.681,4.681,0,0,1,.391.391l1.491-1.334a7.024,7.024,0,0,0-.55-.549A6.927,6.927,0,0,0,15.611,7.017Z" fill="#555555" data-color="color-2"></path></g></svg>