<svg version="1.1" xmlns="http://www.w3.org/2000/svg" xmlns:xlink="http://www.w3.org/1999/xlink" x="0px" y="0px" viewBox="0 0 32 32" xml:space="preserve" width="32" height="32"><g class="nc-icon-wrapper" fill="#fb503b"><path data-color="color-2" fill="#555555" d="M32,14h-2v-1c0-6.065-4.935-11-11-11h-1V0h1c7.168,0,13,5.832,13,13V14z"></path> <path data-color="color-2" fill="#555555" d="M26,14h-2v-1c0-2.757-2.243-5-5-5h-1V6h1c3.86,0,7,3.14,7,7V14z"></path> <path fill="#fb503b" d="M25.175,32C11.271,32,0,20.729,0,6.825l4.528-4.528c0.396-0.396,1.038-0.396,1.434,0l5.909,5.909 c0.396,0.396,0.396,1.038,0,1.434l-4.528,4.528l10.49,10.49l4.528-4.528c0.396-0.396,1.038-0.396,1.434,0l5.909,5.909 c0.396,0.396,0.396,1.038,0,1.434L25.175,32z"></path></g></svg>
