<svg version="1.1" xmlns="http://www.w3.org/2000/svg" xmlns:xlink="http://www.w3.org/1999/xlink" x="0px" y="0px" viewBox="0 0 32 32" xml:space="preserve" width="32" height="32"><g class="nc-icon-wrapper" fill="#fb503b"><path fill="#fb503b" d="M5,16c0.6,0,1-0.4,1-1V1c0-0.6-0.4-1-1-1S4,0.4,4,1v14C4,15.6,4.4,16,5,16z"></path> <path fill="#fb503b" d="M9,18H1c-0.6,0-1,0.4-1,1v5c0,0.6,0.4,1,1,1h3v6c0,0.6,0.4,1,1,1s1-0.4,1-1v-6h3c0.6,0,1-0.4,1-1v-5 C10,18.4,9.6,18,9,18z"></path> <path fill="#fb503b" d="M27,16c0.6,0,1-0.4,1-1V1c0-0.6-0.4-1-1-1s-1,0.4-1,1v14C26,15.6,26.4,16,27,16z"></path> <path fill="#fb503b" d="M31,18h-8c-0.6,0-1,0.4-1,1v5c0,0.6,0.4,1,1,1h3v6c0,0.6,0.4,1,1,1s1-0.4,1-1v-6h3c0.6,0,1-0.4,1-1v-5 C32,18.4,31.6,18,31,18z"></path> <path data-color="color-2" fill="#555555" d="M16,5c0.6,0,1-0.4,1-1V1c0-0.6-0.4-1-1-1s-1,0.4-1,1v3C15,4.6,15.4,5,16,5z"></path> <path data-color="color-2" fill="#555555" d="M20,7h-8c-0.6,0-1,0.4-1,1v5c0,0.6,0.4,1,1,1h3v17c0,0.6,0.4,1,1,1s1-0.4,1-1V14h3 c0.6,0,1-0.4,1-1V8C21,7.4,20.6,7,20,7z"></path></g></svg>
