<svg version="1.1" xmlns="http://www.w3.org/2000/svg" xmlns:xlink="http://www.w3.org/1999/xlink" x="0px" y="0px" viewBox="0 0 32 32" xml:space="preserve" width="32" height="32"><g class="nc-icon-wrapper" fill="#fb503b"><path fill="#fb503b" d="M7,8H1C0.448,8,0,7.552,0,7V1c0-0.552,0.448-1,1-1h6c0.552,0,1,0.448,1,1v6C8,7.552,7.552,8,7,8z"></path> <path fill="#fb503b" d="M19,8h-6c-0.552,0-1-0.448-1-1V1c0-0.552,0.448-1,1-1h6c0.552,0,1,0.448,1,1v6C20,7.552,19.552,8,19,8z"></path> <path fill="#fb503b" d="M19,20h-6c-0.552,0-1-0.448-1-1v-6c0-0.552,0.448-1,1-1h6c0.552,0,1,0.448,1,1v6C20,19.552,19.552,20,19,20z "></path> <path fill="#fb503b" d="M31,8h-6c-0.552,0-1-0.448-1-1V1c0-0.552,0.448-1,1-1h6c0.552,0,1,0.448,1,1v6C32,7.552,31.552,8,31,8z"></path> <path fill="#fb503b" d="M7,20H1c-0.552,0-1-0.448-1-1v-6c0-0.552,0.448-1,1-1h6c0.552,0,1,0.448,1,1v6C8,19.552,7.552,20,7,20z"></path> <path fill="#fb503b" d="M7,32H1c-0.552,0-1-0.448-1-1v-6c0-0.552,0.448-1,1-1h6c0.552,0,1,0.448,1,1v6C8,31.552,7.552,32,7,32z"></path> <path data-color="color-2" fill="#555555" d="M29.5,18h-3c-0.276,0-0.5-0.224-0.5-0.5v-3c0-0.276,0.224-0.5,0.5-0.5h3 c0.276,0,0.5,0.224,0.5,0.5v3C30,17.776,29.776,18,29.5,18z"></path> <path data-color="color-2" fill="#555555" d="M17.5,30h-3c-0.276,0-0.5-0.224-0.5-0.5v-3c0-0.276,0.224-0.5,0.5-0.5h3 c0.276,0,0.5,0.224,0.5,0.5v3C18,29.776,17.776,30,17.5,30z"></path> <path data-color="color-2" fill="#555555" d="M29.5,30h-3c-0.276,0-0.5-0.224-0.5-0.5v-3c0-0.276,0.224-0.5,0.5-0.5h3 c0.276,0,0.5,0.224,0.5,0.5v3C30,29.776,29.776,30,29.5,30z"></path></g></svg>