<svg version="1.1" xmlns="http://www.w3.org/2000/svg" xmlns:xlink="http://www.w3.org/1999/xlink" x="0px" y="0px" viewBox="0 0 32 32" xml:space="preserve" width="32" height="32"><g class="nc-icon-wrapper" fill="#fb503b"><path fill="#fb503b" d="M25,4H3C2.448,4,2,4.448,2,5v26c0,0.552,0.448,1,1,1h22c0.552,0,1-0.448,1-1V5C26,4.448,25.552,4,25,4z M13,25H7v-2h6V25z M21,19H7v-2h14V19z M21,13H7v-2h14V13z"></path> <path data-color="color-2" fill="#555555" d="M30,29h-2V2H5V0h24c0.552,0,1,0.448,1,1V29z"></path></g></svg>
