<svg version="1.1" xmlns="http://www.w3.org/2000/svg" xmlns:xlink="http://www.w3.org/1999/xlink" x="0px" y="0px" viewBox="0 0 32 32" xml:space="preserve" width="32" height="32"><g class="nc-icon-wrapper" fill="#fb503b"><rect data-color="color-2" x="26" y="14" fill="#555555" width="6" height="2"></rect> <rect data-color="color-2" x="23.991" y="6.5" transform="matrix(0.8661 -0.4999 0.4999 0.8661 -0.1346 14.4977)" fill="#555555" width="6" height="2"></rect> <rect data-color="color-2" x="25.991" y="19.5" transform="matrix(0.5 -0.866 0.866 0.5 -5.9901 34.625)" fill="#555555" width="2" height="6"></rect> <path fill="#fb503b" d="M21.462,1.113c-0.331-0.173-0.729-0.146-1.035,0.067L10.685,8H5.5C2.468,8,0,10.468,0,13.5S2.468,19,5.5,19 h5.185l9.742,6.819C20.598,25.939,20.799,26,21,26c0.158,0,0.316-0.037,0.462-0.113C21.793,25.715,22,25.373,22,25V2 C22,1.627,21.793,1.285,21.462,1.113z"></path> <path fill="#fb503b" d="M10.726,21H5.853l3.943,8.746c0.493,1.105,1.789,1.601,2.894,1.108c1.105-0.493,1.601-1.789,1.108-2.894 L10.726,21z"></path></g></svg>