<svg version="1.1" xmlns="http://www.w3.org/2000/svg" xmlns:xlink="http://www.w3.org/1999/xlink" x="0px" y="0px" viewBox="0 0 32 32" xml:space="preserve" width="32" height="32"><g class="nc-icon-wrapper" fill="#fb503b"><path fill="#fb503b" d="M28,16c0,6.617-5.383,12-12,12S4,22.617,4,16S9.383,4,16,4c3.013,0,5.859,1.146,8.028,3.095l-4.682,3.576 l9.326,1.249l1.249-9.326l-4.28,3.269C23.079,3.436,19.643,2,16,2C8.28,2,2,8.28,2,16s6.28,14,14,14s14-6.28,14-14H28z"></path> <polygon data-color="color-2" fill="#555555" points="17,17 9,17 9,15 15,15 15,9 17,9 "></polygon></g></svg>