<svg version="1.1" xmlns="http://www.w3.org/2000/svg" xmlns:xlink="http://www.w3.org/1999/xlink" x="0px" y="0px" viewBox="0 0 32 32" xml:space="preserve" width="32" height="32"><g class="nc-icon-wrapper" fill="#fb503b"><path fill="#fb503b" d="M23.5,0h-15C4.4,0,1,3.4,1,7.5S4.4,15,8.5,15h15c4.1,0,7.5-3.4,7.5-7.5S27.6,0,23.5,0z M8.5,12 C6,12,4,10,4,7.5S6,3,8.5,3S13,5,13,7.5S11,12,8.5,12z"></path> <path data-color="color-2" fill="#555555" d="M23.5,17h-15C4.4,17,1,20.4,1,24.5S4.4,32,8.5,32h15c4.1,0,7.5-3.4,7.5-7.5S27.6,17,23.5,17z M23.5,29C21,29,19,27,19,24.5s2-4.5,4.5-4.5s4.5,2,4.5,4.5S26,29,23.5,29z"></path></g></svg>
