<svg version="1.1" xmlns="http://www.w3.org/2000/svg" xmlns:xlink="http://www.w3.org/1999/xlink" x="0px" y="0px" viewBox="0 0 32 32" xml:space="preserve" width="32" height="32"><g class="nc-icon-wrapper" fill="#fb503b"><path data-color="color-2" fill="#555555" d="M4,16v-1H2v1c0,1.495,0.244,2.984,0.726,4.426l0.316,0.948l1.897-0.633l-0.317-0.949 C4.209,18.555,4,17.279,4,16z"></path> <path data-color="color-2" fill="#555555" d="M7.515,24.485l-0.707-0.707l-1.414,1.414l0.707,0.708c1.014,1.014,2.17,1.862,3.437,2.522 l0.887,0.461l0.924-1.774l-0.887-0.462C9.375,26.083,8.384,25.355,7.515,24.485z"></path> <path data-color="color-2" fill="#555555" d="M19.792,27.378C18.554,27.791,17.278,28,16,28h-1v2h1c1.493,0,2.982-0.244,4.425-0.725 l0.948-0.316l-0.632-1.897L19.792,27.378z"></path> <path data-color="color-2" fill="#555555" d="M26.648,21.539c-0.565,1.085-1.294,2.076-2.163,2.946l-0.707,0.708l1.414,1.414l0.707-0.707 c1.014-1.014,1.862-2.17,2.522-3.436l0.462-0.887l-1.772-0.925L26.648,21.539z"></path> <path fill="#fb503b" d="M8.053,7.043c2.17-1.892,5.005-3.02,7.947-3.02c6.609,0,11.986,5.37,11.999,11.976h2 C29.986,8.291,23.712,2.024,16,2.024c-3.49,0-6.85,1.367-9.398,3.645L2.727,2L2,12.024l9.969-1.272L8.053,7.043z"></path></g></svg>