<svg version="1.1" xmlns="http://www.w3.org/2000/svg" xmlns:xlink="http://www.w3.org/1999/xlink" x="0px" y="0px" viewBox="0 0 32 32" xml:space="preserve" width="32" height="32"><g class="nc-icon-wrapper" fill="#fb503b"><path fill="#fb503b" d="M16.22 22.022l-3.198 3.198A2.992 2.992 0 0 0 19 25a2.992 2.992 0 0 0-2.78-2.978z"></path><path fill="#fb503b" d="M15.988 18.001l3.563-3.502A13.027 13.027 0 0 0 16 14a12.91 12.91 0 0 0-9.192 3.808l2.828 2.828a8.939 8.939 0 0 1 6.352-2.635z"></path><path fill="#fb503b" d="M19.525 18.718a8.991 8.991 0 0 1 2.84 1.918l2.828-2.829a13.072 13.072 0 0 0-2.698-2.059l-2.97 2.97z"></path><path fill="#fb503b" d="M16 10c2.354 0 4.633.474 6.737 1.367l3.037-2.985A21.135 21.135 0 0 0 16 6 21.106 21.106 0 0 0 .975 12.224l2.828 2.828A17.137 17.137 0 0 1 16 10z"></path><path fill="#fb503b" d="M25.433 12.809a17.372 17.372 0 0 1 2.764 2.243l2.828-2.828a21.477 21.477 0 0 0-2.726-2.282l-2.866 2.867z"></path><path data-color="color-2" fill="#555555" d="M5.586 27L29 3.586 30.414 5 7 28.414z"></path></g></svg>
