<svg version="1.1" xmlns="http://www.w3.org/2000/svg" xmlns:xlink="http://www.w3.org/1999/xlink" x="0px" y="0px" viewBox="0 0 32 32" xml:space="preserve" width="32" height="32"><g class="nc-icon-wrapper" fill="#fb503b"><path fill="#fb503b" d="M13,2c6.065,0,11,4.935,11,11s-4.935,11-11,11S2,19.065,2,13S6.935,2,13,2 M13,0C5.832,0,0,5.832,0,13 s5.832,13,13,13s13-5.832,13-13S20.168,0,13,0L13,0z"></path> <path data-color="color-2" fill="#555555" d="M8,13H6c0-3.86,3.14-7,7-7v2C10.243,8,8,10.243,8,13z"></path> <path data-color="color-2" fill="#555555" d="M31.061,28.939l-6.453-6.453c-0.635,0.776-1.346,1.486-2.121,2.121l6.453,6.453 c0.586,0.586,1.535,0.586,2.121,0C31.646,30.475,31.646,29.525,31.061,28.939z"></path></g></svg>