<svg version="1.1" id="Layer_1" xmlns="http://www.w3.org/2000/svg" xmlns:xlink="http://www.w3.org/1999/xlink" x="0px" y="0px" viewBox="0 0 1273.4 301.5" enable-background="new 0 0 1273.4 301.5" xml:space="preserve">
      <g>
        <path fill="#FB503B" d="M294.7,157.4c-1.6,37.2-33.1,66.1-70.3,64.5c-37.2-1.6-66.1-33.1-64.5-70.3c1.6-37.2,33.1-66.1,70.3-64.5C267.4,88.7,296.3,120.2,294.7,157.4L294.7,157.4z M281.9,156.8c1.3-30.2-22.1-55.7-52.3-57c-30.2-1.3-55.7,22.1-57,52.3c-1.3,30.2,22.1,55.7,52.3,57C255.1,210.4,280.6,187,281.9,156.8z"/>
        <path fill="#FFFFFF" d="M263.4,154c-2.8,1.5-6.2,1.8-9.3,0.9c-6.4-2-9.9-8.8-7.9-15.2c1.3-4.1,4.7-7.3,9-8.2l2.3-0.5l-1.5-1.7c-4.6-5.2-10.5-9-17.1-11.1c-3.7-1.2-7.6-1.8-11.5-1.8c-16.7,0-31.3,10.7-36.4,26.7c-3.1,9.7-2.2,20,2.6,29.1c4.7,9,12.6,15.7,22.4,18.7c3.7,1.2,7.6,1.8,11.5,1.8c16.7,0,31.3-10.7,36.4-26.7c1.1-3.5,1.7-7.1,1.8-10.7l0-2.3L263.4,154z"/>
      </g>
      <g class="eye-animate-left">
        <path fill="#FB503B" d="M162.3,112.2l-15.5-10c-9.9,15.3-15.7,33.5-15.6,53c0.1,18.7,5.5,36.2,14.7,51l15.6-9.8c-7.5-12-11.9-26.1-11.9-41.3C149.7,139.3,154.3,124.5,162.3,112.2L162.3,112.2z"/>
        <path fill="#FB503B" d="M139,97l-21-13.6c-13.4,20.7-21.2,45.4-21.1,71.9c0.1,25.4,7.4,49,19.9,69l21.2-13.2c-10.2-16.2-16.1-35.4-16.1-55.9C121.8,133.8,128.1,113.8,139,97z"/>
        <path fill="#FB503B" d="M110.6,78.6C96.2,100.7,87.9,127,88,155.3c0.1,27.1,7.9,52.4,21.3,73.7l-28,17.5c-16.6-26.4-26.2-57.6-26.3-91.1c-0.1-35,10.1-67.5,27.9-94.8L110.6,78.6L110.6,78.6z"/>
      </g>
      <g class="eye-animate-right">
        <path fill="#FB503B" d="M293.8,111.7l15.4-10.1c10,15.2,15.9,33.4,16,52.9c0.1,18.7-5.2,36.2-14.3,51.1l-15.7-9.6c7.4-12,11.7-26.2,11.6-41.3C306.6,138.7,301.9,124,293.8,111.7L293.8,111.7z"/>
        <path fill="#FB503B" d="M317,96.4l20.9-13.8c13.6,20.6,21.5,45.2,21.6,71.7c0.1,25.4-7,49.1-19.4,69.2l-21.3-13.1c10-16.3,15.8-35.5,15.7-56C334.4,133,328,113,317,96.4z"/>
        <path fill="#FB503B" d="M345.3,77.7c14.5,22,23,48.3,23.1,76.6c0.1,27.1-7.5,52.4-20.7,73.9l28.1,17.3c16.4-26.5,25.8-57.8,25.6-91.3c-0.1-35-10.6-67.4-28.5-94.6L345.3,77.7L345.3,77.7z"/>
      </g>
      <g>
        <path fill="#FFFFFF" d="M428,209.6v-86.9c0-2.8,1-5.2,3-7.2c2-2,4.4-3,7.2-3h60.4v16.6h-50.8v20.9h37.8v6.5c0,2.8-1,5.2-3,7.2s-4.4,3-7.2,3h-27.6v24.8h50.8v18H428z"/>
        <path fill="#FFFFFF" d="M510.7,236.2v-15.5h5.4c3.8,0,6.7-0.9,8.9-2.7c2.2-1.8,2.6-4.7,1.3-8.6l-26.2-74.7h21.7l15.2,53l13.3-46.3c1.1-4.5,4.1-6.8,9-6.8h13.5l-28.8,85.4c-2.3,6.2-5.1,10.6-8.5,13.3c-3.4,2.3-8.9,3.4-16.6,3.4c-0.6,0-1.2,0-2,0c-0.7,0-1.4,0-2,0c-0.6-0.2-1.3-0.3-2.1-0.4C511.9,236.2,511.2,236.2,510.7,236.2z"/>
        <path fill="#FFFFFF" d="M624.9,186.5H639c-2.1,7.9-6,13.9-11.8,18c-5.8,4.3-13.2,6.5-22,6.5c-10.7,0-19.1-3.5-25.1-10.4c-6-6.8-9-16.4-9-29.1c0-12,2.9-21.4,8.7-28.2c6-7,14.4-10.4,25.1-10.4c11.3,0,20,3.4,26.2,10.2c6,7,9,16.6,9,29c0,0.7,0,1.4,0,2c0,0.6,0,0.9,0,1.1c0,0.9-0.1,1.6-0.3,2h-48.8c0.2,5.8,1.6,10.2,4.2,13c2.4,3,6.1,4.5,11,4.5c3.2,0,5.9-0.7,8.2-2c0.6-0.2,1.1-0.5,1.6-1c0.5-0.5,1-1,1.6-1.6c0.2-0.6,0.9-1.3,2.1-2.3C620.9,187,622.7,186.5,624.9,186.5z M591.1,164.5h28.8c-0.4-5.1-1.7-8.8-4-11.3c-2.4-2.6-5.9-4-10.4-4c-4.1,0-7.5,1.3-10.2,4C592.7,155.9,591.3,159.6,591.1,164.5z"/>
        <path fill="#FB503B" d="M723.7,209.6h-19.7l-11.6-53.6l-11.6,53.6h-19.7l-20.6-75h19.2l11.8,51.9l10.7-51.9h20l10.2,51.9l10.4-45.1c1.1-4.5,4.1-6.8,9-6.8h12.4L723.7,209.6z"/>
        <path fill="#FB503B" d="M750.3,112.6h10.2c2.6,0,4.9,0.9,6.8,2.8c1.9,1.9,2.8,4.1,2.8,6.8v5.9h-19.7V112.6z M750.3,134.6h10.2c2.6,0,4.9,0.9,6.8,2.8c1.9,1.9,2.8,4.1,2.8,6.8v65.4h-19.7V134.6z"/>
        <path fill="#FB503B" d="M808.6,209.6c-6.2,0.4-12.9,0.3-20.2-0.3c-7.2-0.6-10.9-5.2-10.9-13.8v-82.9h10.2c2.4,0,4.6,0.9,6.5,2.8c1.9,1.9,2.8,4.1,2.8,6.8v12.7h11.6v4c0,2.8-0.9,5.1-2.8,6.9c-1.9,1.8-4.1,2.7-6.8,2.7h-2v41.7c0,3.2,1.9,4.8,5.6,4.8h5.9V209.6z"/>
        <path fill="#FB503B" d="M882.1,209.6h-9.9c-2.8,0-5.1-0.9-6.9-2.7c-1.8-1.8-2.7-4.1-2.7-6.9v-38.4c0-4.5-1.4-7.8-4.1-9.9c-2.7-2.1-5.8-3.1-9.2-3.1c-3.4,0-6.4,1-9,3.1c-2.6,2.1-4,5.4-4,9.9v47.9h-19.7v-44c0-12.8,3.3-21.3,10-25.7c6.7-4.3,14-6.7,22.1-7.1c8.3,0,15.9,2.2,22.8,6.5c7,4.3,10.4,13.1,10.4,26.2V209.6z"/>
        <path fill="#FB503B" d="M941.2,186.5h14.1c-2.1,7.9-6,13.9-11.8,18c-5.8,4.3-13.2,6.5-22,6.5c-10.7,0-19.1-3.5-25.1-10.4c-6-6.8-9-16.4-9-29.1c0-12,2.9-21.4,8.7-28.2c6-7,14.4-10.4,25.1-10.4c11.3,0,20,3.4,26.2,10.2c6,7,9,16.6,9,29c0,0.7,0,1.4,0,2c0,0.6,0,0.9,0,1.1c0,0.9-0.1,1.6-0.3,2h-48.8c0.2,5.8,1.6,10.2,4.2,13c2.4,3,6.1,4.5,11,4.5c3.2,0,5.9-0.7,8.2-2c0.6-0.2,1.1-0.5,1.6-1c0.5-0.5,1-1,1.6-1.6c0.2-0.6,0.9-1.3,2.1-2.3C937.2,187,938.9,186.5,941.2,186.5z M907.3,164.5h28.8c-0.4-5.1-1.7-8.8-4-11.3c-2.4-2.6-5.9-4-10.4-4c-4.1,0-7.5,1.3-10.2,4C908.9,155.9,907.5,159.6,907.3,164.5z"/>
        <path fill="#FB503B" d="M962.8,184.8H982c0.2,3.8,1.6,6.6,4.2,8.5c2.8,1.9,6.6,2.8,11.3,2.8c3.4,0,6.3-0.7,8.7-2
        c2.3-1.3,3.4-3.1,3.4-5.4c0-3.4-4-5.9-11.8-7.6c-3.4-0.6-5.9-1.1-7.6-1.7c-10-2.4-16.6-5.4-20-8.7c-3.8-3.4-5.6-7.9-5.6-13.5
        c0-7.1,2.7-13.1,8.2-17.8c5.6-4.3,13-6.5,22-6.5c9.8,0,17.6,2.2,23.4,6.5c5.5,4.7,8.4,10.8,8.7,18.3h-12.1c-3.6,0-6.3-1.6-8.2-4.8
        c-0.8-0.7-1.5-1.5-2.3-2.3c-2.3-1.7-5.4-2.5-9.3-2.5c-3.8,0-6.6,0.6-8.5,1.7c-1.7,1.1-2.5,2.8-2.5,5.1c0,3,4.9,5.5,14.7,7.6
        c1.1,0.4,2.1,0.7,3,0.8c0.8,0.2,1.6,0.3,2.4,0.3c9.6,2.4,16.3,5.3,20,8.5c3.6,3.4,5.4,7.9,5.4,13.5c0,8.3-3,14.7-9,19.2
        c-5.6,4.1-14.1,6.2-25.4,6.2c-10.7,0-18.7-2.2-24-6.5c-5.5-4.3-8.2-10.6-8.2-18.9V184.8z"/>
        <path fill="#FB503B" d="M1034.6,184.8h19.2c0.2,3.8,1.6,6.6,4.2,8.5c2.8,1.9,6.6,2.8,11.3,2.8c3.4,0,6.3-0.7,8.7-2c2.3-1.3,3.4-3.1,3.4-5.4c0-3.4-4-5.9-11.8-7.6c-3.4-0.6-5.9-1.1-7.6-1.7c-10-2.4-16.6-5.4-20-8.7c-3.8-3.4-5.6-7.9-5.6-13.5c0-7.1,2.7-13.1,8.2-17.8c5.6-4.3,13-6.5,22-6.5c9.8,0,17.6,2.2,23.4,6.5c5.5,4.7,8.4,10.8,8.7,18.3h-12.1c-3.6,0-6.3-1.6-8.2-4.8c-0.7-0.7-1.5-1.5-2.3-2.3c-2.3-1.7-5.4-2.5-9.3-2.5c-3.8,0-6.6,0.6-8.5,1.7c-1.7,1.1-2.5,2.8-2.5,5.1c0,3,4.9,5.5,14.7,7.6c1.1,0.4,2.1,0.7,3,0.8c0.8,0.2,1.6,0.3,2.4,0.3c9.6,2.4,16.3,5.3,20,8.5c3.6,3.4,5.4,7.9,5.4,13.5c0,8.3-3,14.7-9,19.2c-5.6,4.1-14.1,6.2-25.4,6.2c-10.7,0-18.7-2.2-24-6.5c-5.5-4.3-8.2-10.6-8.2-18.9V184.8z"/>
        <path fill="#FFFFFF" d="M1110.1,194.1h9.6v15.5h-15.5v-9.6C1104.2,196.1,1106.2,194.1,1110.1,194.1z"/>
        <path fill="#FFFFFF" d="M1126.2,112.6h10.2c2.6,0,4.9,0.9,6.8,2.8c1.9,1.9,2.8,4.1,2.8,6.8v5.9h-19.7V112.6z M1126.2,134.6h10.2c2.6,0,4.9,0.9,6.8,2.8c1.9,1.9,2.8,4.1,2.8,6.8v65.4h-19.7V134.6z"/>
        <path fill="#FFFFFF" d="M1161.5,202.9c-3.9-3.4-6.8-7.9-8.5-13.7c-1.7-5.7-2.5-11.7-2.5-17.9c0-5.1,0.7-10.2,2.1-15.2c1.4-5.1,3.6-9.3,6.6-12.7c4.9-5.6,11.2-9,18.9-10c7.7-1,14.7-0.4,20.9,1.8c7.1,2.8,12.4,7.7,15.8,14.7c3.2,6.2,4.8,13.4,4.8,21.7c0,6-0.7,11.2-2,15.5c-1.3,4.3-3,8-5.1,11c-4.5,6.2-10.2,10.1-17.2,11.6c-6.2,1.7-12.5,1.8-18.8,0.4C1170.3,208.7,1165.2,206.3,1161.5,202.9z M1175,153.2c-4,4.3-5.7,10.8-5.4,19.3c0.4,8.6,2,14.5,4.8,17.9c1.1,1.5,3.1,2.8,5.9,3.8c2.8,1,5.7,1.1,8.6,0.3c2.9-0.8,5.5-3,7.8-6.3c2.3-3.4,3.5-8.8,3.7-16.4c0-6.8-1.1-11.8-3.2-15.2c-2.2-3.4-4.6-5.5-7.5-6.5c-2.8-0.9-5.6-1-8.5-0.1C1178.4,150.8,1176.3,151.9,1175,153.2z"/>
      </g>
</svg>
